<?xml version="1.0" encoding="UTF-8"?>
<svg version="1.1" xmlns="http://www.w3.org/2000/svg" width="200" height="100">
<path d="M0 0 C-0.88188976 6.5511811 -0.88188976 6.5511811 -1.625 9.375 C-1.810625 10.179375 -1.810625 10.179375 -2 11 C0.14473187 13.14473187 4.52533517 12.88759696 7.43359375 13.3046875 C10 14 10 14 12 17 C11.21625 17.639375 10.4325 18.27875 9.625 18.9375 C6.62189725 21.89854248 6.24081935 24.74677547 5.515625 28.7890625 C4.22449492 34.3252718 0.50813691 37.84430416 -4 41 C-4.66773438 41.26296875 -5.33546875 41.5259375 -6.0234375 41.796875 C-8.71836627 43.43726643 -9.10626949 45.05509835 -10.125 48 C-11.8206278 52.8206278 -11.8206278 52.8206278 -14 55 C-13.030625 55.391875 -12.06125 55.78375 -11.0625 56.1875 C-8 58 -8 58 -7.125 60.6875 C-7.08375 61.450625 -7.0425 62.21375 -7 63 C-9.97 63.495 -9.97 63.495 -13 64 C-11.5459375 65.3303125 -11.5459375 65.3303125 -10.0625 66.6875 C-8.11292186 68.66492926 -6.9934488 70.01413681 -5.8125 72.5625 C-6 75 -6 75 -7.75 77.8125 C-12.37957557 80.92856048 -16.56259367 80.61291215 -22 80 C-22.99 79.505 -22.99 79.505 -24 79 C-23.25 72.375 -23.25 72.375 -21 69 C-18.69 69.66 -16.38 70.32 -14 71 C-14 70.01 -14 69.02 -14 68 C-14.86625 67.62875 -14.86625 67.62875 -15.75 67.25 C-18.38288682 65.7872851 -20.12450669 64.36173231 -22 62 C-21.75 59.75 -21.75 59.75 -21 58 C-22.65 57.67 -24.3 57.34 -26 57 C-25.99476318 57.62567871 -25.98952637 58.25135742 -25.98413086 58.89599609 C-25.96338382 61.72232057 -25.95034714 64.54862905 -25.9375 67.375 C-25.92912109 68.35984375 -25.92074219 69.3446875 -25.91210938 70.359375 C-25.90888672 71.30039063 -25.90566406 72.24140625 -25.90234375 73.2109375 C-25.89710693 74.08024902 -25.89187012 74.94956055 -25.88647461 75.84521484 C-26 78 -26 78 -27 80 C-32.42164902 81.19442459 -38.72484443 81.72249978 -44 80 C-47.13569068 75.0435857 -47.65332243 70.78657007 -47 65 C-44.87817525 61.09584245 -43.618084 60.1917052 -39.34765625 58.8671875 C-37.69056641 58.43792969 -37.69056641 58.43792969 -36 58 C-35.43244831 48.84736549 -35.43244831 48.84736549 -38.84765625 40.890625 C-40.87067007 39.67753029 -42.76270939 38.73896842 -45 38 C-45.33 38.33 -45.66 38.66 -46 39 C-47.68183948 39.23287008 -49.3712416 39.41264166 -51.0625 39.5625 C-52.691875 39.706875 -54.32125 39.85125 -56 40 C-52.37 40 -48.74 40 -45 40 C-45 42.31 -45 44.62 -45 47 C-46.65 47 -48.3 47 -50 47 C-50 58.22 -50 69.44 -50 81 C-52.64 81 -55.28 81 -58 81 C-58 70.11 -58 59.22 -58 48 C-62.455 46.02 -62.455 46.02 -67 44 C-68.98465541 42.01534459 -68.70581155 38.64769603 -69 36 C-69.07863281 35.31808594 -69.15726562 34.63617188 -69.23828125 33.93359375 C-69.4884194 30.16722786 -69.24201757 28.32377399 -66.96484375 25.27734375 C-63.2993732 22.46183739 -60.60678574 22.4126162 -56.1875 22.6875 C-55.49462891 22.71005859 -54.80175781 22.73261719 -54.08789062 22.75585938 C-52.39098427 22.81437339 -50.69520139 22.9040452 -49 23 C-48.88785156 22.24847656 -48.77570313 21.49695313 -48.66015625 20.72265625 C-47.48513291 15.87655407 -44.22374957 12.54281554 -40.17578125 9.734375 C-32.95371616 5.80838424 -25.79791529 4.65971131 -17.6875 5.625 C-13.12784464 6.20689494 -13.12784464 6.20689494 -9.0625 4.1875 C-8.381875 3.465625 -7.70125 2.74375 -7 2 C-2.7 0 -2.7 0 0 0 Z M-62 33 C-62 33.66 -62 34.32 -62 35 C-59.03 35 -56.06 35 -53 35 C-52.67 34.34 -52.34 33.68 -52 33 C-55.3 33 -58.6 33 -62 33 Z M-36 64 C-37.29449495 67.88348484 -37.13203312 70.90697336 -37 75 C-35.93354885 76.29633621 -35.93354885 76.29633621 -33.4375 76.0625 C-32.633125 76.041875 -31.82875 76.02125 -31 76 C-29.74809359 71.74351821 -30.08497845 69.0124261 -32 65 C-34.03243548 64.03122943 -34.03243548 64.03122943 -36 64 Z " fill="#E4776A" transform="translate(159,5)"/>
<path d="M0 0 C2.9559532 1.01182852 4.54350605 2.03480484 7 4 C7 5.65 7 7.3 7 9 C6.34 9.33 5.68 9.66 5 10 C4.34444881 12.52733235 4.34444881 12.52733235 4 15 C4.66 15 5.32 15 6 15 C4.14285714 23.57142857 4.14285714 23.57142857 1 27 C1.969375 27.391875 2.93875 27.78375 3.9375 28.1875 C7 30 7 30 7.875 32.6875 C7.91625 33.450625 7.9575 34.21375 8 35 C5.03 35.495 5.03 35.495 2 36 C2.969375 36.886875 3.93875 37.77375 4.9375 38.6875 C6.88707814 40.66492926 8.0065512 42.01413681 9.1875 44.5625 C9 47 9 47 7.25 49.8125 C2.62042443 52.92856048 -1.56259367 52.61291215 -7 52 C-7.66 51.67 -8.32 51.34 -9 51 C-8.25 44.375 -8.25 44.375 -6 41 C-3.69 41.66 -1.38 42.32 1 43 C1 42.01 1 41.02 1 40 C0.4225 39.7525 -0.155 39.505 -0.75 39.25 C-3.38288682 37.7872851 -5.12450669 36.36173231 -7 34 C-6.75 31.75 -6.75 31.75 -6 30 C-7.65 29.67 -9.3 29.34 -11 29 C-10.99214478 29.93851807 -10.99214478 29.93851807 -10.98413086 30.89599609 C-10.96338382 33.72232057 -10.95034714 36.54862905 -10.9375 39.375 C-10.92912109 40.35984375 -10.92074219 41.3446875 -10.91210938 42.359375 C-10.90727539 43.77089844 -10.90727539 43.77089844 -10.90234375 45.2109375 C-10.89448853 46.51490479 -10.89448853 46.51490479 -10.88647461 47.84521484 C-11 50 -11 50 -12 52 C-17.42164902 53.19442459 -23.72484443 53.72249978 -29 52 C-32.13569068 47.0435857 -32.65332243 42.78657007 -32 37 C-30.4375 34.125 -30.4375 34.125 -28 32 C-25.69 31.34 -23.38 30.68 -21 30 C-21.33 24.72 -21.66 19.44 -22 14 C-21.01 14 -20.02 14 -19 14 C-19.309375 13.2575 -19.61875 12.515 -19.9375 11.75 C-20.288125 10.8425 -20.63875 9.935 -21 9 C-21.28875 8.319375 -21.5775 7.63875 -21.875 6.9375 C-22 5 -22 5 -20.1875 2.8125 C-14.72982881 -1.70957042 -6.7531433 -0.51331889 0 0 Z M-21 36 C-22.29449495 39.88348484 -22.13203312 42.90697336 -22 47 C-20.93354885 48.29633621 -20.93354885 48.29633621 -18.4375 48.0625 C-17.633125 48.041875 -16.82875 48.02125 -16 48 C-14.74809359 43.74351821 -15.08497845 41.0124261 -17 37 C-19.03243548 36.03122943 -19.03243548 36.03122943 -21 36 Z " fill="#EFC2B4" transform="translate(144,33)"/>
<path d="M0 0 C-0.88188976 6.5511811 -0.88188976 6.5511811 -1.625 9.375 C-1.810625 10.179375 -1.810625 10.179375 -2 11 C0.14473187 13.14473187 4.52533517 12.88759696 7.43359375 13.3046875 C10 14 10 14 12 17 C7.60800485 22.07824439 3.26626416 24.5720362 -3.4921875 25.25 C-7.2861057 25.34225333 -10.33276055 25.22036461 -13.96875 24.01953125 C-19.619993 22.31076678 -25.58254674 22.5283212 -31.4375 22.375 C-32.64599609 22.33632813 -33.85449219 22.29765625 -35.09960938 22.2578125 C-38.06625817 22.16400542 -41.03290836 22.07830754 -44 22 C-44.15625 19.16796875 -44.15625 19.16796875 -44 16 C-38.21453629 9.78062651 -31.90300345 8.00415459 -23.66333008 7.68652344 C-22.16493606 7.64623801 -20.66564116 7.63033294 -19.16674805 7.64160156 C-13.41037222 7.53406703 -11.13453911 5.96988933 -7 2 C-4.47923357 0.79690693 -2.77986356 0 0 0 Z " fill="#E97469" transform="translate(159,5)"/>
<path d="M0 0 C0 0.66 0 1.32 0 2 C-1.11117187 2.02578125 -2.22234375 2.0515625 -3.3671875 2.078125 C-16.77463807 2.5097078 -16.77463807 2.5097078 -28.6953125 8.2578125 C-30.50983529 10.68079803 -30.57224772 13.04466597 -31 16 C-30.24904053 15.98952637 -29.49808105 15.97905273 -28.72436523 15.96826172 C-25.29544471 15.92648109 -21.86657793 15.90060378 -18.4375 15.875 C-17.25607422 15.85824219 -16.07464844 15.84148438 -14.85742188 15.82421875 C-8.77396976 15.79013779 -3.75369739 16.05689852 2 18 C7.72286321 18.50245376 13.35678516 17.98142867 19 17 C18.50847131 24.12716602 16.98524619 28.31327842 11.5 33.25 C8.14375057 35.5993746 6.14030619 37 2 37 C2 35.35 2 33.7 2 32 C2.99 31.67 3.98 31.34 5 31 C4.96906827 28.58414426 4.96906827 28.58414426 4 26 C-0.63358499 23.00096186 -4.7415011 22.56265077 -10.125 22.6875 C-11.17880859 22.68266602 -11.17880859 22.68266602 -12.25390625 22.67773438 C-15.93603275 22.71601735 -18.96186279 22.78975518 -22 25 C-22.99077298 27.45286596 -22.99077298 27.45286596 -23 30 C-22.34 30.66 -21.68 31.32 -21 32 C-21 33.32 -21 34.64 -21 36 C-25.27768354 35.5138996 -27.778312 34.86372267 -31 32 C-34.86390711 26.27531657 -37.21914729 20.87155745 -36 14 C-32.5683455 7.60517626 -27.79041318 3.53229469 -21.0625 0.8125 C-13.76365577 -1.12392806 -7.42431232 -0.87265877 0 0 Z " fill="#C24047" transform="translate(146,11)"/>
<path d="M0 0 C1.24394531 -0.03738281 2.48789062 -0.07476562 3.76953125 -0.11328125 C7.1875 0.3125 7.1875 0.3125 9.609375 2.046875 C11.3814035 4.59087632 11.70279636 5.80982322 11.625 8.875 C11.62371094 9.63941406 11.62242188 10.40382813 11.62109375 11.19140625 C11.09730116 13.75374297 10.16943582 14.66702013 8.1875 16.3125 C8.84234375 16.84359375 9.4971875 17.3746875 10.171875 17.921875 C12.763279 20.99540067 12.60954801 22.60539587 12.4375 26.5625 C12.40140625 27.64015625 12.3653125 28.7178125 12.328125 29.828125 C12.25851563 31.05789062 12.25851563 31.05789062 12.1875 32.3125 C9.95102369 33.43073815 8.53858471 33.50646061 6.0546875 33.62890625 C5.24902344 33.67080078 4.44335938 33.71269531 3.61328125 33.75585938 C2.77152344 33.79517578 1.92976563 33.83449219 1.0625 33.875 C0.21300781 33.91818359 -0.63648438 33.96136719 -1.51171875 34.00585938 C-3.61178223 34.11204236 -5.71211948 34.21278497 -7.8125 34.3125 C-7.83715288 29.63110746 -7.85533739 24.94975241 -7.86743164 20.26831055 C-7.87247157 18.67455386 -7.8793035 17.08080181 -7.88793945 15.48706055 C-7.90001999 13.20099747 -7.90573155 10.91499533 -7.91015625 8.62890625 C-7.91531754 7.91223282 -7.92047882 7.19555939 -7.92579651 6.45716858 C-7.92599263 4.74186328 -7.87442007 3.02668734 -7.8125 1.3125 C-5.88285936 -0.61714064 -2.56524242 0.05019527 0 0 Z M-1.8125 4.3125 C-1.8125 7.2825 -1.8125 10.2525 -1.8125 13.3125 C-0.4925 13.3125 0.8275 13.3125 2.1875 13.3125 C2.1875 10.6725 2.1875 8.0325 2.1875 5.3125 C0.8675 4.9825 -0.4525 4.6525 -1.8125 4.3125 Z M-2.8125 20.3125 C-2.8125 22.2925 -2.8125 24.2725 -2.8125 26.3125 C0.4875 26.3125 3.7875 26.3125 7.1875 26.3125 C7.1875 24.6625 7.1875 23.0125 7.1875 21.3125 C4.90044169 20.16897084 3.59485238 20.20915561 1.0625 20.25 C-0.855625 20.2809375 -0.855625 20.2809375 -2.8125 20.3125 Z " fill="#941A21" transform="translate(51.8125,50.6875)"/>
<path d="M0 0 C0 2.97 0 5.94 0 9 C-3.125 8.47916667 -6.25 7.95833333 -9.375 7.4375 C-10.674375 7.2209375 -10.674375 7.2209375 -12 7 C-12.33 7.66 -12.66 8.32 -13 9 C-12.15695313 9.39832031 -11.31390625 9.79664063 -10.4453125 10.20703125 C-8.80175781 11.00173828 -8.80175781 11.00173828 -7.125 11.8125 C-6.03445312 12.33457031 -4.94390625 12.85664062 -3.8203125 13.39453125 C-1 15 -1 15 1 18 C1.54640069 23.24544666 1.54640069 23.24544666 -0.3125 25.8125 C-4.15871028 28.51909242 -8.20086104 28.11695967 -12.6875 28.0625 C-13.38939453 28.05798828 -14.09128906 28.05347656 -14.81445312 28.04882812 C-16.54300538 28.03706927 -18.27151365 28.01913454 -20 28 C-20 25.03 -20 22.06 -20 19 C-13.07 19.495 -13.07 19.495 -6 20 C-9.24504765 16.75495235 -11.77136875 15.70586453 -15.94140625 14.0625 C-18 13 -18 13 -20 10 C-20.40713754 6.26790586 -20.48317209 3.89731959 -18.6875 0.5625 C-13.12911967 -2.66911647 -6.06068963 -1.35293072 0 0 Z " fill="#E17A6C" transform="translate(65,21)"/>
<path d="M0 0 C0.66 0 1.32 0 2 0 C3.25182887 1.44441792 4.50089441 2.89298507 5.68359375 4.39453125 C6.94868417 6.04052849 6.94868417 6.04052849 8.56176758 7.29931641 C10.47383626 9.56030273 10.36031076 10.88445003 10.328125 13.81640625 C10.32296875 14.74517578 10.3178125 15.67394531 10.3125 16.63085938 C10.291875 17.59830078 10.27125 18.56574219 10.25 19.5625 C10.24484375 20.53380859 10.2396875 21.50511719 10.234375 22.50585938 C10.15448428 29.69103145 10.15448428 29.69103145 9 32 C3.57835098 33.19442459 -2.72484443 33.72249978 -8 32 C-11.13569068 27.0435857 -11.65332243 22.78657007 -11 17 C-8.86061631 13.06353401 -7.50767263 12.17768542 -3.25 10.6875 C-2.1775 10.460625 -1.105 10.23375 0 10 C0 6.7 0 3.4 0 0 Z M0 16 C-1.29449495 19.88348484 -1.13203312 22.90697336 -1 27 C0.06645115 28.29633621 0.06645115 28.29633621 2.5625 28.0625 C3.366875 28.041875 4.17125 28.02125 5 28 C6.25190641 23.74351821 5.91502155 21.0124261 4 17 C1.96756452 16.03122943 1.96756452 16.03122943 0 16 Z " fill="#82191E" transform="translate(123,53)"/>
<path d="M0 0 C1 1 1 1 1.09765625 2.84765625 C1.04882812 5.92382812 1.04882812 5.92382812 1 9 C3.97851562 8.90234375 3.97851562 8.90234375 6.95703125 8.8046875 C9 9 9 9 12 11 C12.43237305 13.06298828 12.43237305 13.06298828 12.51171875 15.5703125 C12.56489258 16.91416016 12.56489258 16.91416016 12.61914062 18.28515625 C12.64169922 19.22230469 12.66425781 20.15945312 12.6875 21.125 C12.73874023 22.54232422 12.73874023 22.54232422 12.79101562 23.98828125 C12.87364112 26.32540253 12.94273988 28.66214191 13 31 C10.69 31 8.38 31 6 31 C5.67 27.04 5.34 23.08 5 19 C2.69 18.67 0.38 18.34 -2 18 C-2.33 21.3 -2.66 24.6 -3 28 C-4.65 28.33 -6.3 28.66 -8 29 C-9.25406138 23.21354356 -9.11186913 17.51131884 -9.0625 11.625 C-9.05798828 10.60277344 -9.05347656 9.58054687 -9.04882812 8.52734375 C-9.037103 6.01816806 -9.02069176 3.5091151 -9 1 C-5.78419562 -0.07193479 -3.36629251 -0.14636054 0 0 Z " fill="#E37B6A" transform="translate(77,21)"/>
<path d="M0 0 C0.09688221 5.44693314 0.12862175 10.63904667 -1 16 C1.64 16 4.28 16 7 16 C6.77183594 15.33613281 6.54367188 14.67226562 6.30859375 13.98828125 C6.02113281 13.10527344 5.73367187 12.22226563 5.4375 11.3125 C5.14746094 10.44238281 4.85742188 9.57226562 4.55859375 8.67578125 C3.94414959 5.73246482 4.16151517 3.86691521 5 1 C6 0 6 0 8.4375 -0.25 C9.7059375 -0.12625 9.7059375 -0.12625 11 0 C13.46722592 3.70083888 13.4029366 6.64779838 13.4375 10.9375 C13.48680664 12.01161133 13.48680664 12.01161133 13.53710938 13.10742188 C13.57502809 16.82690355 13.31935328 18.63245341 10.8515625 21.47265625 C7.61088417 23.20841684 5.5963516 23.53700482 1.9375 23.5 C0.40416016 23.51546875 0.40416016 23.51546875 -1.16015625 23.53125 C-4 23 -4 23 -6.35546875 21.546875 C-8.83444592 17.70769896 -8.43130602 14.21291749 -8.25 9.75 C-8.23195313 8.90953125 -8.21390625 8.0690625 -8.1953125 7.203125 C-8.14830798 5.13492605 -8.07656724 3.06731559 -8 1 C-2.25 0 -2.25 0 0 0 Z " fill="#8A1C23" transform="translate(74,62)"/>
<path d="M0 0 C-0.88188976 6.5511811 -0.88188976 6.5511811 -1.625 9.375 C-1.74875 9.91125 -1.8725 10.4475 -2 11 C0.14473187 13.14473187 4.52533517 12.88759696 7.43359375 13.3046875 C10 14 10 14 12 17 C6.71129894 22.28870106 5.14024125 23.24027501 -2.3125 23.375 C-3.47168945 23.43107422 -3.47168945 23.43107422 -4.65429688 23.48828125 C-8.70846984 23.55102855 -10.38652572 23.53678999 -13.53125 20.78515625 C-15.54972574 16.95756794 -15.41467792 14.63400915 -14.80859375 10.44140625 C-13.42773308 6.27214094 -10.6679442 4.21782672 -7 2 C-4.43956933 0.74823389 -2.82259446 0 0 0 Z " fill="#478382" transform="translate(159,5)"/>
<path d="M0 0 C2.4375 1.25 2.4375 1.25 4 3 C4 4.32 4 5.64 4 7 C2.02 7.33 0.04 7.66 -2 8 C-1.030625 8.886875 -0.06125 9.77375 0.9375 10.6875 C2.88707814 12.66492926 4.0065512 14.01413681 5.1875 16.5625 C5 19 5 19 3.25 21.8125 C-1.37957557 24.92856048 -5.56259367 24.61291215 -11 24 C-11.66 23.67 -12.32 23.34 -13 23 C-12.25 16.375 -12.25 16.375 -10 13 C-7.69 13.66 -5.38 14.32 -3 15 C-3 14.01 -3 13.02 -3 12 C-3.86625 11.62875 -3.86625 11.62875 -4.75 11.25 C-7.3002997 9.83316683 -9.01785701 8.12372463 -11 6 C-8.73226795 -0.31725357 -6.65858671 -0.45921288 0 0 Z " fill="#7F242D" transform="translate(148,61)"/>
<path d="M0 0 C2.64 0 5.28 0 8 0 C8 10.89 8 21.78 8 33 C5.36 33 2.72 33 0 33 C0 22.11 0 11.22 0 0 Z " fill="#7E2024" transform="translate(101,53)"/>
<path d="M0 0 C0.66 0 1.32 0 2 0 C2 0.66 2 1.32 2 2 C2.763125 1.67 3.52625 1.34 4.3125 1 C7 0 7 0 10 0 C10 0.66 10 1.32 10 2 C11.65 1.67 13.3 1.34 15 1 C15 3.31 15 5.62 15 8 C14.34 8 13.68 8 13 8 C12.75765625 8.63421875 12.5153125 9.2684375 12.265625 9.921875 C11 12 11 12 9.046875 12.828125 C0.04494382 14.48154093 0.04494382 14.48154093 -4 14 C-5.875 12.625 -5.875 12.625 -7 11 C-7 10.34 -7 9.68 -7 9 C-7.66 9 -8.32 9 -9 9 C-9 7.35 -9 5.7 -9 4 C-6.36 3.67 -3.72 3.34 -1 3 C-0.67 2.01 -0.34 1.02 0 0 Z " fill="#F7F2E9" transform="translate(132,44)"/>
<path d="M0 0 C0 0.66 0 1.32 0 2 C-1.11117187 2.02578125 -2.22234375 2.0515625 -3.3671875 2.078125 C-13.13478588 2.4087274 -21.19845012 3.17946715 -29.5625 8.6875 C-31.76242829 12.22651508 -31.8247846 15.89995956 -32 20 C-29.08235 21.9451 -27.37462715 22.45276317 -24 23 C-23.87625 24.11375 -23.7525 25.2275 -23.625 26.375 C-23.3534187 30.03103677 -23.3534187 30.03103677 -21 32 C-21 33.32 -21 34.64 -21 36 C-25.27768354 35.5138996 -27.778312 34.86372267 -31 32 C-34.86390711 26.27531657 -37.21914729 20.87155745 -36 14 C-32.5683455 7.60517626 -27.79041318 3.53229469 -21.0625 0.8125 C-13.76365577 -1.12392806 -7.42431232 -0.87265877 0 0 Z " fill="#92161E" transform="translate(146,11)"/>
<path d="M0 0 C2.27057377 -0.05398987 4.54151288 -0.09278742 6.8125 -0.125 C8.07707031 -0.14820313 9.34164062 -0.17140625 10.64453125 -0.1953125 C14 0 14 0 17 2 C17.1875 4.625 17.1875 4.625 17 7 C16.01 7.495 16.01 7.495 15 8 C14.34444881 10.52733235 14.34444881 10.52733235 14 13 C14.66 13 15.32 13 16 13 C14.88924449 18.95768862 13.84134231 22.00589259 9 26 C6.59454362 27.20272819 5.05003047 27.10071472 2.375 27.0625 C1.14910156 27.04896484 1.14910156 27.04896484 -0.1015625 27.03515625 C-0.72804687 27.02355469 -1.35453125 27.01195313 -2 27 C-2 26.34 -2 25.68 -2 25 C-2.99 24.67 -3.98 24.34 -5 24 C-2.50655461 21.50655461 -1.56188885 21.75758028 1.875 21.625 C6.06096332 21.32490629 6.06096332 21.32490629 9.5 18.9375 C9.995 18.298125 10.49 17.65875 11 17 C11.66 17 12.32 17 13 17 C13 14.69 13 12.38 13 10 C11.35 10.33 9.7 10.66 8 11 C8 9.35 8 7.7 8 6 C7.01 5.67 6.02 5.34 5 5 C5.66 3.68 6.32 2.36 7 1 C4.69 1 2.38 1 0 1 C0 0.67 0 0.34 0 0 Z " fill="#F1E2D7" transform="translate(134,35)"/>
<path d="M0 0 C0.66 0 1.32 0 2 0 C3.25182887 1.44441792 4.50089441 2.89298507 5.68359375 4.39453125 C6.94868417 6.04052849 6.94868417 6.04052849 8.56176758 7.29931641 C10.47383626 9.56030273 10.36031076 10.88445003 10.328125 13.81640625 C10.32296875 14.74517578 10.3178125 15.67394531 10.3125 16.63085938 C10.291875 17.59830078 10.27125 18.56574219 10.25 19.5625 C10.24484375 20.53380859 10.2396875 21.50511719 10.234375 22.50585938 C10.15448428 29.69103145 10.15448428 29.69103145 9 32 C7.35 32 5.7 32 4 32 C4 31.01 4 30.02 4 29 C4.66 29 5.32 29 6 29 C6.93619813 25.84493858 7.1057123 23.03413498 7.0625 19.75 C7.05347656 18.85796875 7.04445312 17.9659375 7.03515625 17.046875 C7.02355469 16.37140625 7.01195312 15.6959375 7 15 C4.03 14.505 4.03 14.505 1 14 C1 14.66 1 15.32 1 16 C-3.455 15.01 -3.455 15.01 -8 14 C-4.91330796 10.91330796 -4.08072342 10.55144911 0 10 C0 6.7 0 3.4 0 0 Z " fill="#97171F" transform="translate(123,53)"/>
<path d="M0 0 C-0.49152869 7.12716602 -2.01475381 11.31327842 -7.5 16.25 C-10.85624943 18.5993746 -12.85969381 20 -17 20 C-17 18.35 -17 16.7 -17 15 C-16.01 14.67 -15.02 14.34 -14 14 C-14.103125 13.071875 -14.20625 12.14375 -14.3125 11.1875 C-14.209375 10.135625 -14.10625 9.08375 -14 8 C-11.625 6.375 -11.625 6.375 -9 5 C-8.30251417 3.68252676 -7.63040043 2.35085807 -7 1 C-4 0 -4 0 0 0 Z " fill="#9D131E" transform="translate(165,28)"/>
<path d="M0 0 C1.24394531 -0.03738281 2.48789062 -0.07476562 3.76953125 -0.11328125 C7.1875 0.3125 7.1875 0.3125 9.61328125 2.04296875 C11.39869648 4.61697929 11.67635963 5.84258825 11.5625 8.9375 C11.54316406 10.10152344 11.54316406 10.10152344 11.5234375 11.2890625 C11.1875 13.3125 11.1875 13.3125 9.1875 15.3125 C9.13851562 14.45785156 9.08953125 13.60320312 9.0390625 12.72265625 C8.96429688 11.61792969 8.88953125 10.51320313 8.8125 9.375 C8.74289063 8.27285156 8.67328125 7.17070313 8.6015625 6.03515625 C8.46492188 5.13667969 8.32828125 4.23820312 8.1875 3.3125 C3.97112979 1.20431489 -1.11473824 1.70398015 -5.8125 1.3125 C-6.1425 11.5425 -6.4725 21.7725 -6.8125 32.3125 C-0.8725 31.9825 5.0675 31.6525 11.1875 31.3125 C11.1875 28.3425 11.1875 25.3725 11.1875 22.3125 C10.5275 22.6425 9.8675 22.9725 9.1875 23.3125 C9.1875 24.9625 9.1875 26.6125 9.1875 28.3125 C4.67132401 28.38904536 0.59664783 28.41478696 -3.8125 27.3125 C-3.8125 25.3325 -3.8125 23.3525 -3.8125 21.3125 C-3.4825 21.3125 -3.1525 21.3125 -2.8125 21.3125 C-2.8125 22.9625 -2.8125 24.6125 -2.8125 26.3125 C0.4875 26.3125 3.7875 26.3125 7.1875 26.3125 C7.1875 24.6625 7.1875 23.0125 7.1875 21.3125 C6.5275 20.9825 5.8675 20.6525 5.1875 20.3125 C6.8375 19.6525 8.4875 18.9925 10.1875 18.3125 C12.1875 20.3125 12.1875 20.3125 12.3828125 23.1328125 C12.35960938 24.22335938 12.33640625 25.31390625 12.3125 26.4375 C12.29445313 27.53320312 12.27640625 28.62890625 12.2578125 29.7578125 C12.23460938 30.60085937 12.21140625 31.44390625 12.1875 32.3125 C9.95102369 33.43073815 8.53858471 33.50646061 6.0546875 33.62890625 C5.24902344 33.67080078 4.44335938 33.71269531 3.61328125 33.75585938 C2.77152344 33.79517578 1.92976563 33.83449219 1.0625 33.875 C0.21300781 33.91818359 -0.63648438 33.96136719 -1.51171875 34.00585938 C-3.61178223 34.11204236 -5.71211948 34.21278497 -7.8125 34.3125 C-7.83715288 29.63110746 -7.85533739 24.94975241 -7.86743164 20.26831055 C-7.87247157 18.67455386 -7.8793035 17.08080181 -7.88793945 15.48706055 C-7.90001999 13.20099747 -7.90573155 10.91499533 -7.91015625 8.62890625 C-7.91531754 7.91223282 -7.92047882 7.19555939 -7.92579651 6.45716858 C-7.92599263 4.74186328 -7.87442007 3.02668734 -7.8125 1.3125 C-5.88285936 -0.61714064 -2.56524242 0.05019527 0 0 Z " fill="#7C252A" transform="translate(51.8125,50.6875)"/>
<path d="M0 0 C2.31 0 4.62 0 7 0 C7 5.94 7 11.88 7 18 C4.69 18 2.38 18 0 18 C-1.82116003 16.17883997 -1.1323508 13.69328236 -1.13671875 11.2734375 C-1.13285156 10.52320312 -1.12898438 9.77296875 -1.125 9 C-1.12886719 8.24976562 -1.13273437 7.49953125 -1.13671875 6.7265625 C-1.12661053 1.12661053 -1.12661053 1.12661053 0 0 Z " fill="#89191F" transform="translate(89,66)"/>
<path d="M0 0 C2.97 0.495 2.97 0.495 6 1 C6.8125 3.1875 6.8125 3.1875 7 6 C5.25 8.8125 5.25 8.8125 2 11 C-2.30840007 11.55172317 -7.03775096 11.98112452 -11 10 C-10.67 7.69 -10.34 5.38 -10 3 C-6.7 2.67 -3.4 2.34 0 2 C0 1.34 0 0.68 0 0 Z " fill="#811E26" transform="translate(146,74)"/>
<path d="M0 0 C1.15628906 -0.00257812 2.31257812 -0.00515625 3.50390625 -0.0078125 C6.4375 0.125 6.4375 0.125 8.4375 1.125 C8.4375 1.785 8.4375 2.445 8.4375 3.125 C4.91050726 6.65199274 2.88591205 7.99390055 -2.14453125 8.44921875 C-5.62982228 8.43862516 -9.08431081 8.34208532 -12.5625 8.125 C-12.8925 6.805 -13.2225 5.485 -13.5625 4.125 C-9.00472296 0.51021131 -5.775714 -0.01290662 0 0 Z " fill="#42B6B5" transform="translate(160.5625,19.875)"/>
<path d="M0 0 C4.29 0 8.58 0 13 0 C13 0.33 13 0.66 13 1 C8.545 1.495 8.545 1.495 4 2 C7.63 2 11.26 2 15 2 C15 4.31 15 6.62 15 9 C10.4717073 9.96740798 6.81453374 9.91845644 2.25 9.1875 C1.12078125 9.01605469 -0.0084375 8.84460937 -1.171875 8.66796875 C-4 8 -4 8 -6 6 C-4.35 6 -2.7 6 -1 6 C-1.33 5.01 -1.66 4.02 -2 3 C-1.34 3 -0.68 3 0 3 C0 2.01 0 1.02 0 0 Z " fill="#D77E6D" transform="translate(99,43)"/>
<path d="M0 0 C3.27075883 -0.0580476 6.54138524 -0.09361165 9.8125 -0.125 C10.74126953 -0.14175781 11.67003906 -0.15851562 12.62695312 -0.17578125 C13.51962891 -0.18222656 14.41230469 -0.18867188 15.33203125 -0.1953125 C16.15421143 -0.20578613 16.9763916 -0.21625977 17.82348633 -0.22705078 C20 0 20 0 23 2 C25.0492094 2.45139459 25.0492094 2.45139459 27.1875 2.625 C28.445625 2.74875 29.70375 2.8725 31 3 C31 3.33 31 3.66 31 4 C29.48019531 4.05607422 29.48019531 4.05607422 27.9296875 4.11328125 C26.57809061 4.17898388 25.22652971 4.24542971 23.875 4.3125 C22.87726563 4.34633789 22.87726563 4.34633789 21.859375 4.38085938 C16.25500471 4.68305581 12.0086713 5.9913287 8 10 C8 8.68 8 7.36 8 6 C6.88625 5.896875 5.7725 5.79375 4.625 5.6875 C2.830625 5.3471875 2.830625 5.3471875 1 5 C0.34 4.01 -0.32 3.02 -1 2 C-0.67 1.34 -0.34 0.68 0 0 Z " fill="#D12532" transform="translate(114,28)"/>
<path d="M0 0 C1.32 0 2.64 0 4 0 C4 8.58 4 17.16 4 26 C2.68 26 1.36 26 0 26 C0 17.42 0 8.84 0 0 Z " fill="#9B171F" transform="translate(103,56)"/>
<path d="M0 0 C1.23147292 3.69441875 0.44298991 4.51984786 -1 8 C-1 9.32 -1 10.64 -1 12 C-1.556875 12.12375 -2.11375 12.2475 -2.6875 12.375 C-5.22114364 13.05976855 -7.57921032 13.99133763 -10 15 C-10.75 12.875 -10.75 12.875 -11 10 C-8.36081216 4.61165815 -5.17468371 2.58734185 0 0 Z " fill="#35A3A4" transform="translate(156,7)"/>
<path d="M0 0 C2.64 0.33 5.28 0.66 8 1 C7.34 1.66 6.68 2.32 6 3 C6.66 3.33 7.32 3.66 8 4 C8 4.99 8 5.98 8 7 C4.91190305 8.76462683 3.76687864 9 0 9 C0 8.34 0 7.68 0 7 C-0.350625 7.45375 -0.70125 7.9075 -1.0625 8.375 C-3.77096206 10.64661334 -6.60795328 11.16798854 -10 12 C-10.66 11.34 -11.32 10.68 -12 10 C-10.35 9.67 -8.7 9.34 -7 9 C-7 8.34 -7 7.68 -7 7 C-6.34 6.67 -5.68 6.34 -5 6 C-4.67 5.01 -4.34 4.02 -4 3 C-2.68 3.33 -1.36 3.66 0 4 C0 2.68 0 1.36 0 0 Z " fill="#CFB8B7" transform="translate(134,37)"/>
<path d="M0 0 C0 0.66 0 1.32 0 2 C-1.11117187 2.02578125 -2.22234375 2.0515625 -3.3671875 2.078125 C-17.18066656 2.26601131 -17.18066656 2.26601131 -28.86328125 8.8203125 C-30.5003025 10.69978622 -30.5003025 10.69978622 -31.84375 12.609375 C-32.2253125 13.06828125 -32.606875 13.5271875 -33 14 C-33.66 14 -34.32 14 -35 14 C-33.60915082 8.74568089 -30.35214709 5.96116674 -26 3 C-17.51157878 -1.31078646 -9.2457798 -1.08675531 0 0 Z " fill="#501C18" transform="translate(146,11)"/>
<path d="M0 0 C2.31 0.33 4.62 0.66 7 1 C7 4.63 7 8.26 7 12 C6.01 12.33 5.02 12.66 4 13 C4 13.66 4 14.32 4 15 C3.01 15 2.02 15 1 15 C1.185625 14.195625 1.37125 13.39125 1.5625 12.5625 C1.706875 11.716875 1.85125 10.87125 2 10 C1.67 9.67 1.34 9.34 1 9 C0.95936168 7.33382885 0.957279 5.66611905 1 4 C0.34 4 -0.32 4 -1 4 C-0.67 2.68 -0.34 1.36 0 0 Z " fill="#9A151E" transform="translate(114,67)"/>
<path d="M0 0 C0.77210952 2.50935594 0.98572204 4.34267107 0.875 7 C1.02312922 10.55510128 1.4726798 11.53986827 4 14 C7.18596662 14.70124774 7.18596662 14.70124774 10.6875 14.75 C11.86699219 14.80671875 13.04648438 14.8634375 14.26171875 14.921875 C15.16535156 14.94765625 16.06898438 14.9734375 17 15 C12.73140377 17.84573082 9.01068837 17.39194035 4 17 C1.65593068 16.37212429 -0.67793475 15.70491267 -3 15 C-6.32532538 14.55433784 -9.6551344 14.25574425 -13 14 C-13 13.67 -13 13.34 -13 13 C-8.34462607 12.16203269 -4.62921525 11.9838308 0 13 C0 12.34 0 11.68 0 11 C-0.66 11 -1.32 11 -2 11 C-3.125 5.25 -3.125 5.25 -2 3 C-1.34 3 -0.68 3 0 3 C0 2.01 0 1.02 0 0 Z " fill="#B66D70" transform="translate(144,13)"/>
<path d="M0 0 C5.71428571 0.71428571 5.71428571 0.71428571 7 2 C7.125 5.5 7.125 5.5 7 9 C6 10 6 10 2.4375 10.0625 C1.303125 10.041875 0.16875 10.02125 -1 10 C-1.02689216 8.52093108 -1.04634621 7.04172517 -1.0625 5.5625 C-1.07410156 4.73878906 -1.08570312 3.91507813 -1.09765625 3.06640625 C-1 1 -1 1 0 0 Z " fill="#88292C" transform="translate(89,53)"/>
<path d="M0 0 C0.33 0 0.66 0 1 0 C1 1.65 1 3.3 1 5 C1.76143311 4.98952637 2.52286621 4.97905273 3.30737305 4.96826172 C6.7673816 4.92660981 10.22733731 4.9006444 13.6875 4.875 C14.88568359 4.85824219 16.08386719 4.84148438 17.31835938 4.82421875 C18.47529297 4.81777344 19.63222656 4.81132812 20.82421875 4.8046875 C22.41882935 4.78897705 22.41882935 4.78897705 24.0456543 4.77294922 C27.13649899 5.01049038 29.27476502 5.52840368 32 7 C32.495 8.485 32.495 8.485 33 10 C31.20759337 9.88610125 29.41605165 9.75852313 27.625 9.625 C26.12839844 9.52058594 26.12839844 9.52058594 24.6015625 9.4140625 C22 9 22 9 20 7 C17.87139338 6.63047951 17.87139338 6.63047951 15.4296875 6.5859375 C14.53378906 6.54726563 13.63789062 6.50859375 12.71484375 6.46875 C11.77769531 6.4378125 10.84054688 6.406875 9.875 6.375 C8.45767578 6.31699219 8.45767578 6.31699219 7.01171875 6.2578125 C4.67467625 6.16338654 2.33764499 6.07781606 0 6 C-0.33 6.66 -0.66 7.32 -1 8 C-0.67 5.36 -0.34 2.72 0 0 Z " fill="#D2343B" transform="translate(114,22)"/>
<path d="M0 0 C2 2 2 2 2.24291992 4.12304688 C2.23881104 4.97962891 2.23470215 5.83621094 2.23046875 6.71875 C2.22853516 7.65074219 2.22660156 8.58273438 2.22460938 9.54296875 C2.21236328 10.51878906 2.20011719 11.49460937 2.1875 12.5 C2.18685547 13.47582031 2.18621094 14.45164062 2.18554688 15.45703125 C2.14034598 22.71930804 2.14034598 22.71930804 1 25 C-0.65 25 -2.3 25 -4 25 C-4 24.01 -4 23.02 -4 22 C-3.34 22 -2.68 22 -2 22 C-0.66802163 18.02487704 -0.92605137 14.00872845 -1 9.875 C-1.13461538 2.26923077 -1.13461538 2.26923077 0 0 Z " fill="#7D2226" transform="translate(131,60)"/>
<path d="M0 0 C0.99 0.33 1.98 0.66 3 1 C2.67 1.99 2.34 2.98 2 4 C1.34 2.68 0.68 1.36 0 0 Z M-4.375 1.4375 C-3.14910156 1.59025391 -3.14910156 1.59025391 -1.8984375 1.74609375 C-0.95871094 1.87177734 -0.95871094 1.87177734 0 2 C-0.33 3.32 -0.66 4.64 -1 6 C-2.65 6 -4.3 6 -6 6 C-6 6.66 -6 7.32 -6 8 C-7.65 7.67 -9.3 7.34 -11 7 C-11 5.35 -11 3.7 -11 2 C-8.47946405 0.73973202 -7.1457902 1.08125555 -4.375 1.4375 Z " fill="#97171E" transform="translate(148,76)"/>
<path d="M0 0 C-0.49315727 7.1507804 -2.10516304 11.18134296 -7.375 16.3125 C-10.3125622 18.20093284 -12.54935001 18.6790093 -16 19 C-11.46218487 15.09243697 -11.46218487 15.09243697 -8.8125 14.5625 C-6.7652615 14.16076074 -6.7652615 14.16076074 -5.875 11.875 C-4.87625306 8.5934029 -3.90805672 5.3079209 -3 2 C-4.32 1.67 -5.64 1.34 -7 1 C-4 0 -4 0 0 0 Z " fill="#522025" transform="translate(165,28)"/>
<path d="M0 0 C0 0.66 0 1.32 0 2 C2.97 2.495 2.97 2.495 6 3 C4.68 3.99 3.36 4.98 2 6 C1.01 5.34 0.02 4.68 -1 4 C-1.33 5.32 -1.66 6.64 -2 8 C-2.66 8 -3.32 8 -4 8 C-4 8.66 -4 9.32 -4 10 C-4.66 10 -5.32 10 -6 10 C-6.33 7.03 -6.66 4.06 -7 1 C-4 0 -4 0 0 0 Z " fill="#FAECE2" transform="translate(131,36)"/>
<path d="M0 0 C8.15384615 2.25641026 8.15384615 2.25641026 11.0625 4.8125 C12.29254332 7.68260109 12.26877063 9.90913778 12 13 C11.67 13.66 11.34 14.32 11 15 C10.34 15 9.68 15 9 15 C9.185625 13.88625 9.37125 12.7725 9.5625 11.625 C10.31680657 8.17431139 10.31680657 8.17431139 9 6 C8.34 6 7.68 6 7 6 C6.34 6.66 5.68 7.32 5 8 C0.545 6.02 0.545 6.02 -4 4 C-2.68 3.34 -1.36 2.68 0 2 C0 1.34 0 0.68 0 0 Z " fill="#D48078" transform="translate(54,32)"/>
<path d="M0 0 C0.66 0 1.32 0 2 0 C3.2890625 1.53125 3.2890625 1.53125 4.625 3.5 C5.07101563 4.1496875 5.51703125 4.799375 5.9765625 5.46875 C6.31429687 5.9740625 6.65203125 6.479375 7 7 C5.35 6.67 3.7 6.34 2 6 C1.34 8.64 0.68 11.28 0 14 C-2.3125 14.625 -2.3125 14.625 -5 15 C-5.99 14.34 -6.98 13.68 -8 13 C-2.25 10 -2.25 10 0 10 C0 6.7 0 3.4 0 0 Z " fill="#801D22" transform="translate(123,53)"/>
<path d="M0 0 C-0.8880597 6.59701493 -0.8880597 6.59701493 -1.625 9.25 C-2.20475845 11.23236634 -2.20475845 11.23236634 -1 14 C-2.32 13.67 -3.64 13.34 -5 13 C-4.46228519 9.62007831 -3.85696068 6.31262111 -3 3 C-9.35185414 6.54284746 -9.35185414 6.54284746 -14 12 C-13.78087133 8.16524836 -13.05971606 7.05835887 -10.25 4.3125 C-6.95465648 1.96773634 -4.12729058 0 0 0 Z " fill="#377172" transform="translate(159,5)"/>
<path d="M0 0 C6.93 0.495 6.93 0.495 14 1 C13.67 1.66 13.34 2.32 13 3 C10.71484375 3.4140625 10.71484375 3.4140625 7.9375 3.625 C6.55884766 3.73714844 6.55884766 3.73714844 5.15234375 3.8515625 C4.44207031 3.90054688 3.73179688 3.94953125 3 4 C2.67 4.99 2.34 5.98 2 7 C6.29 7.33 10.58 7.66 15 8 C15 8.33 15 8.66 15 9 C10.05 9 5.1 9 0 9 C0 6.03 0 3.06 0 0 Z " fill="#C3776B" transform="translate(45,40)"/>
<path d="M0 0 C7.75 -0.125 7.75 -0.125 10 1 C9.67 1.99 9.34 2.98 9 4 C8.01 4.33 7.02 4.66 6 5 C5.34 4.67 4.68 4.34 4 4 C3.67 5.32 3.34 6.64 3 8 C0.9375 6.25 0.9375 6.25 -1 4 C-0.75 1.75 -0.75 1.75 0 0 Z " fill="#94181F" transform="translate(140,63)"/>
<path d="M0 0 C0.99 0.33 1.98 0.66 3 1 C1.8978192 6.91169701 0.88261112 10.0939111 -4 14 C-4.66 14 -5.32 14 -6 14 C-4.94124926 10.59687262 -3.99097846 7.98646769 -2 5 C-1.34 5 -0.68 5 0 5 C0 3.35 0 1.7 0 0 Z " fill="#E7DBCF" transform="translate(147,47)"/>
<path d="M0 0 C1 3 1 3 0 6 C-0.99 6.33 -1.98 6.66 -3 7 C-3.144375 7.763125 -3.28875 8.52625 -3.4375 9.3125 C-4 12 -4 12 -5 15 C-5.99 15 -6.98 15 -8 15 C-8 13.35 -8 11.7 -8 10 C-7.01 9.67 -6.02 9.34 -5 9 C-5.103125 8.071875 -5.20625 7.14375 -5.3125 6.1875 C-5.209375 5.135625 -5.10625 4.08375 -5 3 C-2.5 1.125 -2.5 1.125 0 0 Z " fill="#9F1C23" transform="translate(156,33)"/>
<path d="M0 0 C1 1 1 1 1.0625 4.5625 C1.041875 5.696875 1.02125 6.83125 1 8 C0.67 7.01 0.34 6.02 0 5 C-0.99 5 -1.98 5 -3 5 C-3.33 4.34 -3.66 3.68 -4 3 C-5.32 3 -6.64 3 -8 3 C-8 6.63 -8 10.26 -8 14 C-8.33 14 -8.66 14 -9 14 C-9 9.71 -9 5.42 -9 1 C-5.78419562 -0.07193479 -3.36629251 -0.14636054 0 0 Z " fill="#D58678" transform="translate(77,21)"/>
<path d="M0 0 C0.78246094 -0.01417969 1.56492187 -0.02835938 2.37109375 -0.04296875 C4.5625 0.1875 4.5625 0.1875 7.5625 2.1875 C7.85546875 5.0078125 7.85546875 5.0078125 7.75 8.3125 C7.72292969 9.40820312 7.69585937 10.50390625 7.66796875 11.6328125 C7.63316406 12.47585937 7.59835938 13.31890625 7.5625 14.1875 C7.2325 14.1875 6.9025 14.1875 6.5625 14.1875 C6.5625 10.5575 6.5625 6.9275 6.5625 3.1875 C1.28050407 1.98761955 1.28050407 1.98761955 -3.4375 4.1875 C-4.7575 4.1875 -6.0775 4.1875 -7.4375 4.1875 C-7.1075 3.1975 -6.7775 2.2075 -6.4375 1.1875 C-4.0978331 0.01766655 -2.60358473 0.0213759 0 0 Z " fill="#D58072" transform="translate(81.4375,29.8125)"/>
<path d="M0 0 C1.76923828 0.01353516 1.76923828 0.01353516 3.57421875 0.02734375 C4.47785156 0.03894531 5.38148438 0.05054687 6.3125 0.0625 C6.6425 0.7225 6.9725 1.3825 7.3125 2.0625 C0.7125 2.7225 -5.8875 3.3825 -12.6875 4.0625 C-8.44760089 -0.17739911 -5.77737001 -0.05720168 0 0 Z " fill="#73D9D1" transform="translate(160.6875,19.9375)"/>
<path d="M0 0 C0.78034905 2.67548244 1.12717712 5.14459409 1.4375 7.9375 C1.81922722 11.23143646 2.58230147 13.97557646 4 17 C0.9789286 14.9859524 -0.60667426 13.36720387 -2 10 C-2.33 10 -2.66 10 -3 10 C-3 7.36 -3 4.72 -3 2 C-2.01 2 -1.02 2 0 2 C0 1.34 0 0.68 0 0 Z " fill="#892024" transform="translate(113,23)"/>
<path d="M0 0 C1.62600941 0.0870005 3.25089678 0.1951781 4.875 0.3125 C5.77992188 0.37050781 6.68484375 0.42851562 7.6171875 0.48828125 C10 1 10 1 12 4 C6.85714286 9.57142857 6.85714286 9.57142857 3 10 C4.62339805 8.29115995 6.29319053 6.62553283 8 5 C8.66 5 9.32 5 10 5 C10 4.34 10 3.68 10 3 C6.7 2.67 3.4 2.34 0 2 C0 1.34 0 0.68 0 0 Z " fill="#3A7F7E" transform="translate(159,18)"/>
<path d="M0 0 C2.475 0.99 2.475 0.99 5 2 C5 3.65 5 5.3 5 7 C4.01 7.495 4.01 7.495 3 8 C1.86649466 10.01669827 1.86649466 10.01669827 1 12 C0.45533613 7.915021 0 4.1274515 0 0 Z " fill="#F4CCC1" transform="translate(146,35)"/>
<path d="M0 0 C6.27 0 12.54 0 19 0 C19 0.33 19 0.66 19 1 C17.48019531 1.05607422 17.48019531 1.05607422 15.9296875 1.11328125 C14.57809061 1.17898388 13.22652971 1.24542971 11.875 1.3125 C10.87726563 1.34633789 10.87726563 1.34633789 9.859375 1.38085938 C4.25500471 1.68305581 0.0086713 2.9913287 -4 7 C-3.67 5.35 -3.34 3.7 -3 2 C-2.01 2 -1.02 2 0 2 C0 1.34 0 0.68 0 0 Z " fill="#C72931" transform="translate(126,31)"/>
<path d="M0 0 C0 0.33 0 0.66 0 1 C-0.95712891 1.09087891 -0.95712891 1.09087891 -1.93359375 1.18359375 C-2.75988281 1.26738281 -3.58617187 1.35117187 -4.4375 1.4375 C-5.67306641 1.55931641 -5.67306641 1.55931641 -6.93359375 1.68359375 C-8.98662025 1.78930815 -8.98662025 1.78930815 -10 3 C-6.7 3.33 -3.4 3.66 0 4 C0 4.33 0 4.66 0 5 C-4.62 5 -9.24 5 -14 5 C-14.33 3.68 -14.66 2.36 -15 1 C-10.03926578 -0.32286246 -5.08888488 -0.08893197 0 0 Z " fill="#38A39F" transform="translate(162,23)"/>
<path d="M0 0 C4.29 0 8.58 0 13 0 C13 0.33 13 0.66 13 1 C7.555 1.495 7.555 1.495 2 2 C2.66 2.66 3.32 3.32 4 4 C3.01 4 2.02 4 1 4 C0.34 5.32 -0.32 6.64 -1 8 C-2.65 7.67 -4.3 7.34 -6 7 C-6 6.67 -6 6.34 -6 6 C-4.35 6 -2.7 6 -1 6 C-1.33 5.01 -1.66 4.02 -2 3 C-1.34 3 -0.68 3 0 3 C0 2.01 0 1.02 0 0 Z " fill="#DB7E72" transform="translate(99,43)"/>
<path d="M0 0 C-1.95702015 1.3046801 -3.93582457 2.57742367 -5.9375 3.8125 C-8.94011247 5.95722319 -10.75489483 8.11343621 -13 11 C-13.66 11 -14.32 11 -15 11 C-13.12069211 3.9003924 -7.44919474 -1.09012606 0 0 Z " fill="#501210" transform="translate(126,14)"/>
<path d="M0 0 C0.66 0.33 1.32 0.66 2 1 C1.67 5.29 1.34 9.58 1 14 C1.99 14 2.98 14 4 14 C3.67 14.99 3.34 15.98 3 17 C0 16 0 16 -2 14 C-2.33 13.34 -2.66 12.68 -3 12 C-2.34 11.67 -1.68 11.34 -1 11 C-0.5316735 8.41394668 -0.5316735 8.41394668 -0.375 5.4375 C-0.30023438 4.42558594 -0.22546875 3.41367188 -0.1484375 2.37109375 C-0.09945312 1.58863281 -0.05046875 0.80617188 0 0 Z " fill="#8B1B24" transform="translate(121,68)"/>
<path d="M0 0 C0.66 0.33 1.32 0.66 2 1 C2 1.99 2 2.98 2 4 C-2.455 5.485 -2.455 5.485 -7 7 C-7.66 6.34 -8.32 5.68 -9 5 C-3.375 1.125 -3.375 1.125 0 0 Z " fill="#DA7069" transform="translate(126,14)"/>
<path d="M0 0 C3.71323768 0.3201067 5.16622284 0.55866958 7.625 3.3125 C7.625 4.6325 7.625 5.9525 7.625 7.3125 C5.975 7.3125 4.325 7.3125 2.625 7.3125 C3.615 5.9925 4.605 4.6725 5.625 3.3125 C1.995 2.9825 -1.635 2.6525 -5.375 2.3125 C-3.375 0.3125 -3.375 0.3125 0 0 Z " fill="#88363B" transform="translate(144.375,60.6875)"/>
<path d="M0 0 C0.99 0.33 1.98 0.66 3 1 C2.49396008 3.16874252 2.00016187 4.99967627 1 7 C-1.3140622 7.73075648 -3.64828869 8.40138258 -6 9 C-6.66 8.34 -7.32 7.68 -8 7 C-6.35 6.67 -4.7 6.34 -3 6 C-3 5.34 -3 4.68 -3 4 C-2.34 3.67 -1.68 3.34 -1 3 C-0.67 2.01 -0.34 1.02 0 0 Z " fill="#D8BFBB" transform="translate(130,40)"/>
<path d="M0 0 C0.33 0 0.66 0 1 0 C1.06316406 0.556875 1.12632813 1.11375 1.19140625 1.6875 C2.28202839 8.48379794 5.14485992 12.23573153 10 17 C7 17 7 17 4 15 C0.27794218 9.68277455 -0.45236462 6.44619587 0 0 Z " fill="#671211" transform="translate(111,28)"/>
<path d="M0 0 C0.66 0.33 1.32 0.66 2 1 C1.2265625 2.0828125 1.2265625 2.0828125 0.4375 3.1875 C-2.22655609 8.32887927 -0.6794457 14.48257348 0 20 C-0.66 19.67 -1.32 19.34 -2 19 C-3.12860187 13.46985083 -4.51169773 6.51949621 -1.5 1.5 C-1.005 1.005 -0.51 0.51 0 0 Z " fill="#D38273" transform="translate(93,29)"/>
<path d="M0 0 C0.76413307 2.48343248 0.98679484 4.31032118 0.875 6.9375 C1.01890841 10.46325597 1.99076591 12.15358504 4 15 C2.68 14.34 1.36 13.68 0 13 C0 12.34 0 11.68 0 11 C-0.66 11 -1.32 11 -2 11 C-3.125 5.25 -3.125 5.25 -2 3 C-1.34 3 -0.68 3 0 3 C0 2.01 0 1.02 0 0 Z " fill="#C07D74" transform="translate(144,13)"/>
<path d="M0 0 C4.95 0 9.9 0 15 0 C15 0.99 15 1.98 15 3 C9.47322267 3.19392201 5.24385089 2.7479503 0 1 C0 0.67 0 0.34 0 0 Z " fill="#DA8072" transform="translate(95,28)"/>
<path d="M0 0 C0.66 0.33 1.32 0.66 2 1 C1.45730469 1.45890625 0.91460937 1.9178125 0.35546875 2.390625 C-0.35996094 3.00421875 -1.07539063 3.6178125 -1.8125 4.25 C-2.52019531 4.85328125 -3.22789062 5.4565625 -3.95703125 6.078125 C-5.91889671 7.92370398 -7.45669625 9.79945332 -9 12 C-8.49607061 7.59061785 -7.0379639 5.21156184 -4 2 C-1.875 0.625 -1.875 0.625 0 0 Z " fill="#69CCCB" transform="translate(154,8)"/>
<path d="M0 0 C0.99 0 1.98 0 3 0 C3 1.65 3 3.3 3 5 C1.35 5.33 -0.3 5.66 -2 6 C-2.33 4.68 -2.66 3.36 -3 2 C-2.01 2 -1.02 2 0 2 C0 1.34 0 0.68 0 0 Z " fill="#961C1E" transform="translate(92,55)"/>
<path d="M0 0 C0.66 0 1.32 0 2 0 C0.49653601 4.20969919 -2.14555814 5.91860139 -6 8 C-8.375 7.75 -8.375 7.75 -10 7 C-3.25 3 -3.25 3 -1 3 C-0.67 2.01 -0.34 1.02 0 0 Z " fill="#4E0F0F" transform="translate(159,39)"/>
<path d="M0 0 C0.99 0 1.98 0 3 0 C3.042721 1.66611905 3.04063832 3.33382885 3 5 C2 6 2 6 -0.5625 6.0625 C-1.7690625 6.0315625 -1.7690625 6.0315625 -3 6 C-3.33 5.01 -3.66 4.02 -4 3 C-2.68 3.33 -1.36 3.66 0 4 C0 2.68 0 1.36 0 0 Z " fill="#8A2028" transform="translate(92,78)"/>
<path d="M0 0 C0.66 0 1.32 0 2 0 C2 1.65 2 3.3 2 5 C-2.79300133 6.39151652 -7.15135782 5.68662689 -12 5 C-12 4.67 -12 4.34 -12 4 C-6.06 3.505 -6.06 3.505 0 3 C0 2.01 0 1.02 0 0 Z " fill="#CE6E64" transform="translate(111,47)"/>
<path d="M0 0 C-0.99 0.495 -0.99 0.495 -2 1 C-2.34153937 2.66500443 -2.67449498 4.33178677 -3 6 C-3.66 6.66 -4.32 7.32 -5 8 C-5.33 5.36 -5.66 2.72 -6 0 C-3 -1 -3 -1 0 0 Z " fill="#F5E3D4" transform="translate(130,37)"/>
<path d="M0 0 C2.97 0 5.94 0 9 0 C8.67 0.99 8.34 1.98 8 3 C5.36 3 2.72 3 0 3 C0 2.01 0 1.02 0 0 Z " fill="#D02534" transform="translate(148,31)"/>
<path d="M0 0 C0.33 0.99 0.66 1.98 1 3 C-0.45792884 3.05399736 -1.91642712 3.09279177 -3.375 3.125 C-4.18710938 3.14820313 -4.99921875 3.17140625 -5.8359375 3.1953125 C-8 3 -8 3 -10 1 C-6.52674819 -0.1577506 -3.63932552 -0.06866652 0 0 Z " fill="#2BB4B5" transform="translate(160,24)"/>
<path d="M0 0 C0.66 0.33 1.32 0.66 2 1 C1.2884375 1.7734375 1.2884375 1.7734375 0.5625 2.5625 C-1.42809407 5.66782675 -1.65060818 8.36632504 -2 12 C-2.66 11.67 -3.32 11.34 -4 11 C-4.49230769 4.6 -4.49230769 4.6 -2 1.5625 C-1.34 1.046875 -0.68 0.53125 0 0 Z " fill="#C98375" transform="translate(49,20)"/>
<path d="M0 0 C0.66 0 1.32 0 2 0 C1.875 2.3125 1.875 2.3125 1 5 C-2.0625 6.8125 -2.0625 6.8125 -5 8 C-5.33 7.34 -5.66 6.68 -6 6 C-4 4 -2 2 0 0 Z " fill="#37ACAE" transform="translate(151,14)"/>
<path d="M0 0 C2.31 0 4.62 0 7 0 C6.01 0.66 5.02 1.32 4 2 C3.67 2.66 3.34 3.32 3 4 C2.01 3.67 1.02 3.34 0 3 C0 5.97 0 8.94 0 12 C-0.33 12 -0.66 12 -1 12 C-1.02698189 10.37509046 -1.04638757 8.75005367 -1.0625 7.125 C-1.07410156 6.22007813 -1.08570313 5.31515625 -1.09765625 4.3828125 C-1 2 -1 2 0 0 Z " fill="#811E24" transform="translate(50,52)"/>
<path d="M0 0 C0.99 0 1.98 0 3 0 C3.66 0.66 4.32 1.32 5 2 C7.06874034 2.6425235 7.06874034 2.6425235 9 3 C7.33657163 4.66342837 5.2174291 4.36048097 2.9375 4.5625 C2.01839844 4.64628906 1.09929687 4.73007812 0.15234375 4.81640625 C-0.55792969 4.87699219 -1.26820312 4.93757813 -2 5 C-1.34 3.35 -0.68 1.7 0 0 Z " fill="#E97667" transform="translate(100,47)"/>
<path d="M0 0 C0.33 0 0.66 0 1 0 C1 1.98 1 3.96 1 6 C-0.65 6.33 -2.3 6.66 -4 7 C-4 5.02 -4 3.04 -4 1 C-3.67 1.66 -3.34 2.32 -3 3 C-2.01 3 -1.02 3 0 3 C0 2.01 0 1.02 0 0 Z " fill="#D07E75" transform="translate(73,43)"/>
<path d="M0 0 C0.33 0 0.66 0 1 0 C1 1.65 1 3.3 1 5 C0.34 5 -0.32 5 -1 5 C-0.67 6.32 -0.34 7.64 0 9 C-1.32 9 -2.64 9 -4 9 C-3.67 7.68 -3.34 6.36 -3 5 C-3.99 5 -4.98 5 -6 5 C-5.67 4.34 -5.34 3.68 -5 3 C-3.35 3.33 -1.7 3.66 0 4 C0 2.68 0 1.36 0 0 Z " fill="#791216" transform="translate(128,77)"/>
<path d="M0 0 C0.66 0 1.32 0 2 0 C3.2890625 1.53125 3.2890625 1.53125 4.625 3.5 C5.07101563 4.1496875 5.51703125 4.799375 5.9765625 5.46875 C6.31429687 5.9740625 6.65203125 6.479375 7 7 C2.25 6.125 2.25 6.125 0 5 C0 3.35 0 1.7 0 0 Z " fill="#8D3F42" transform="translate(123,53)"/>
<path d="M0 0 C0.99 0.66 1.98 1.32 3 2 C3 3.32 3 4.64 3 6 C1.68 6 0.36 6 -1 6 C-1.66 4.68 -2.32 3.36 -3 2 C-2.01 2 -1.02 2 0 2 C0 1.34 0 0.68 0 0 Z " fill="#78292F" transform="translate(122,41)"/>
<path d="M0 0 C1.32 0 2.64 0 4 0 C3.38461538 6.52307692 3.38461538 6.52307692 1.4375 8.9375 C0.963125 9.288125 0.48875 9.63875 0 10 C-0.26218749 6.85375007 -0.24754367 5.38162983 1.5 2.6875 C1.995 2.130625 2.49 1.57375 3 1 C2.01 0.67 1.02 0.34 0 0 Z " fill="#881A22" transform="translate(158,30)"/>
<path d="M0 0 C0.66 1.32 1.32 2.64 2 4 C2.66 4 3.32 4 4 4 C4.33 5.98 4.66 7.96 5 10 C4.01 10 3.02 10 2 10 C1.34 6.7 0.68 3.4 0 0 Z " fill="#802026" transform="translate(79,68)"/>
<path d="M0 0 C0.99 0.33 1.98 0.66 3 1 C3 1.99 3 2.98 3 4 C1 5.6875 1 5.6875 -1 7 C-1 5.68 -1 4.36 -1 3 C-1.66 2.67 -2.32 2.34 -3 2 C-2.01 1.34 -1.02 0.68 0 0 Z " fill="#85222D" transform="translate(60,69)"/>
<path d="M0 0 C0.99 0.33 1.98 0.66 3 1 C2.34 3.64 1.68 6.28 1 9 C0.01 8.34 -0.98 7.68 -2 7 C-2 6.34 -2 5.68 -2 5 C-1.34 5 -0.68 5 0 5 C0 3.35 0 1.7 0 0 Z " fill="#E9E4D8" transform="translate(147,47)"/>
<path d="M0 0 C1.98 0.495 1.98 0.495 4 1 C3 4 3 4 1 6 C1 5.34 1 4.68 1 4 C0.34 4 -0.32 4 -1 4 C-0.67 2.68 -0.34 1.36 0 0 Z " fill="#931A24" transform="translate(114,67)"/>
<path d="M0 0 C1.32 0.66 2.64 1.32 4 2 C4 2.66 4 3.32 4 4 C6.31 4 8.62 4 11 4 C11 4.33 11 4.66 11 5 C8.03 5 5.06 5 2 5 C2 4.34 2 3.68 2 3 C1.01 2.67 0.02 2.34 -1 2 C-0.67 1.34 -0.34 0.68 0 0 Z " fill="#E7C9BF" transform="translate(130,57)"/>
<path d="M0 0 C2.0625 0.4375 2.0625 0.4375 4 1 C3.34 2.65 2.68 4.3 2 6 C1.01 6 0.02 6 -1 6 C-1.042721 4.33388095 -1.04063832 2.66617115 -1 1 C-0.67 0.67 -0.34 0.34 0 0 Z " fill="#823638" transform="translate(149,42)"/>
<path d="M0 0 C2.14699969 3.44175522 2.09856795 5.7720292 1.625 9.75 C1.51414063 10.73484375 1.40328125 11.7196875 1.2890625 12.734375 C1.19367188 13.48203125 1.09828125 14.2296875 1 15 C0.67 15 0.34 15 0 15 C-0.19448477 12.87562788 -0.38038289 10.75046809 -0.5625 8.625 C-0.66691406 7.44164063 -0.77132812 6.25828125 -0.87890625 5.0390625 C-1 2 -1 2 0 0 Z " fill="#8E2E31" transform="translate(131,60)"/>
<path d="M0 0 C1.67542976 0.28604898 3.34385343 0.61781233 5 1 C5 1.66 5 2.32 5 3 C3.35 3.66 1.7 4.32 0 5 C-0.5625 3.0625 -0.5625 3.0625 -1 1 C-0.67 0.67 -0.34 0.34 0 0 Z " fill="#88181D" transform="translate(153,39)"/>
<path d="M0 0 C2.31 0.66 4.62 1.32 7 2 C6.67 2.66 6.34 3.32 6 4 C5.34 3.67 4.68 3.34 4 3 C3.67 3.99 3.34 4.98 3 6 C1.5 4.6875 1.5 4.6875 0 3 C0 2.01 0 1.02 0 0 Z " fill="#A1141C" transform="translate(114,32)"/>
<path d="M0 0 C2 1 2 1 5 3 C5.6875 5.625 5.6875 5.625 6 8 C4 6.625 4 6.625 2 5 C2 4.34 2 3.68 2 3 C1.34 3 0.68 3 0 3 C0 2.01 0 1.02 0 0 Z " fill="#F3D5CD" transform="translate(123,50)"/>
<path d="M0 0 C-0.94875 0.45375 -1.8975 0.9075 -2.875 1.375 C-6.00313679 2.80238254 -6.00313679 2.80238254 -8 5 C-7.67 3.35 -7.34 1.7 -7 0 C-3.86650268 -1.04449911 -3.01031744 -0.93423645 0 0 Z " fill="#AA2F31" transform="translate(130,33)"/>
<path d="M0 0 C0.66 0.33 1.32 0.66 2 1 C2 1.66 2 2.32 2 3 C-0.64 3.33 -3.28 3.66 -6 4 C-3.94766315 1.7522025 -2.99332739 0.9977758 0 0 Z " fill="#6ECFCE" transform="translate(154,20)"/>
</svg>
